0
SECTION
2
HEADER
999
DXF File Generated by LightWave 3D(TM)
0
ENDSEC
0
SECTION
2
TABLES
0
ENDSEC
0
SECTION
2
BLOCKS
0
ENDSEC
0
SECTION
2
ENTITIES
0
3DFACE
8
0
70
0
13
-0.450000
23
0.000000
33
0.779423
12
-0.000000
22
0.000000
32
0.900000
11
0.450000
21
0.000000
31
0.779423
10
0.779423
20
0.000000
30
0.450000
0
3DFACE
8
0
70
0
13
-0.450000
23
0.000000
33
0.779423
12
0.779423
22
0.000000
32
0.450000
11
0.900000
21
0.000000
31
0.000000
10
-0.779423
20
0.000000
30
0.450000
0
3DFACE
8
0
70
0
13
-0.779423
23
0.000000
33
0.450000
12
0.900000
22
0.000000
32
0.000000
11
0.779423
21
0.000000
31
-0.450000
10
-0.900000
20
0.000000
30
0.000000
0
3DFACE
8
0
70
0
13
-0.900000
23
0.000000
33
0.000000
12
0.779423
22
0.000000
32
-0.450000
11
0.450000
21
0.000000
31
-0.779423
10
-0.779423
20
0.000000
30
-0.450000
0
3DFACE
8
0
70
0
13
-0.450000
23
0.000000
33
-0.779423
12
-0.779423
22
0.000000
32
-0.450000
11
0.450000
21
0.000000
31
-0.779423
10
-0.000000
20
0.000000
30
-0.900000
0
3DFACE
8
0
70
0
13
-0.779423
23
0.000000
33
-0.450000
12
-0.866025
22
0.200000
32
-0.500000
11
-1.000000
21
0.200000
31
0.000000
10
-0.900000
20
0.000000
30
0.000000
0
3DFACE
8
0
70
0
13
-0.900000
23
0.000000
33
0.000000
12
-1.000000
22
0.200000
32
0.000000
11
-0.866025
21
0.200000
31
0.500000
10
-0.779423
20
0.000000
30
0.450000
0
3DFACE
8
0
70
0
13
-0.450000
23
0.000000
33
-0.779423
12
-0.500000
22
0.200000
32
-0.866025
11
-0.866025
21
0.200000
31
-0.500000
10
-0.779423
20
0.000000
30
-0.450000
0
3DFACE
8
0
70
0
13
-0.779423
23
0.000000
33
0.450000
12
-0.866025
22
0.200000
32
0.500000
11
-0.500000
21
0.200000
31
0.866025
10
-0.450000
20
0.000000
30
0.779423
0
3DFACE
8
0
70
0
13
0.450000
23
0.000000
33
-0.779423
12
0.500000
22
0.200000
32
-0.866025
11
-0.000000
21
0.200000
31
-1.000000
10
-0.000000
20
0.000000
30
-0.900000
0
3DFACE
8
0
70
0
13
-0.000000
23
0.000000
33
-0.900000
12
-0.000000
22
0.200000
32
-1.000000
11
-0.500000
21
0.200000
31
-0.866025
10
-0.450000
20
0.000000
30
-0.779423
0
3DFACE
8
0
70
0
13
-0.450000
23
0.000000
33
0.779423
12
-0.500000
22
0.200000
32
0.866025
11
-0.000000
21
0.200000
31
1.000000
10
-0.000000
20
0.000000
30
0.900000
0
3DFACE
8
0
70
0
13
-0.000000
23
0.000000
33
0.900000
12
-0.000000
22
0.200000
32
1.000000
11
0.500000
21
0.200000
31
0.866025
10
0.450000
20
0.000000
30
0.779423
0
3DFACE
8
0
70
0
13
0.900000
23
0.000000
33
0.000000
12
1.000000
22
0.200000
32
0.000000
11
0.866025
21
0.200000
31
-0.500000
10
0.779423
20
0.000000
30
-0.450000
0
3DFACE
8
0
70
0
13
0.779423
23
0.000000
33
-0.450000
12
0.866025
22
0.200000
32
-0.500000
11
0.500000
21
0.200000
31
-0.866025
10
0.450000
20
0.000000
30
-0.779423
0
3DFACE
8
0
70
0
13
0.450000
23
0.000000
33
0.779423
12
0.500000
22
0.200000
32
0.866025
11
0.866025
21
0.200000
31
0.500000
10
0.779423
20
0.000000
30
0.450000
0
3DFACE
8
0
70
0
13
0.779423
23
0.000000
33
0.450000
12
0.866025
22
0.200000
32
0.500000
11
1.000000
21
0.200000
31
0.000000
10
0.900000
20
0.000000
30
0.000000
0
3DFACE
8
0
70
0
13
-1.000000
23
0.200000
33
0.000000
12
-0.866025
22
0.200000
32
-0.500000
11
-0.866025
21
2.800000
31
-0.500000
10
-1.000000
20
2.800000
30
0.000000
0
3DFACE
8
0
70
0
13
-0.900000
23
3.000000
33
0.000000
12
-1.000000
22
2.800000
32
0.000000
11
-0.866025
21
2.800000
31
-0.500000
10
-0.779423
20
3.000000
30
-0.450000
0
3DFACE
8
0
70
0
13
-0.866025
23
0.200000
33
0.500000
12
-1.000000
22
0.200000
32
0.000000
11
-1.000000
21
2.800000
31
0.000000
10
-0.866025
20
2.800000
30
0.500000
0
3DFACE
8
0
70
0
13
-0.779423
23
3.000000
33
0.450000
12
-0.866025
22
2.800000
32
0.500000
11
-1.000000
21
2.800000
31
0.000000
10
-0.900000
20
3.000000
30
0.000000
0
3DFACE
8
0
70
0
13
-0.866025
23
0.200000
33
-0.500000
12
-0.500000
22
0.200000
32
-0.866025
11
-0.500000
21
2.800000
31
-0.866025
10
-0.866025
20
2.800000
30
-0.500000
0
3DFACE
8
0
70
0
13
-0.779423
23
3.000000
33
-0.450000
12
-0.866025
22
2.800000
32
-0.500000
11
-0.500000
21
2.800000
31
-0.866025
10
-0.450000
20
3.000000
30
-0.779423
0
3DFACE
8
0
70
0
13
-0.500000
23
0.200000
33
0.866025
12
-0.866025
22
0.200000
32
0.500000
11
-0.866025
21
2.800000
31
0.500000
10
-0.500000
20
2.800000
30
0.866025
0
3DFACE
8
0
70
0
13
-0.450000
23
3.000000
33
0.779423
12
-0.500000
22
2.800000
32
0.866025
11
-0.866025
21
2.800000
31
0.500000
10
-0.779423
20
3.000000
30
0.450000
0
3DFACE
8
0
70
0
13
-0.500000
23
0.200000
33
-0.866025
12
-0.000000
22
0.200000
32
-1.000000
11
-0.000000
21
2.800000
31
-1.000000
10
-0.500000
20
2.800000
30
-0.866025
0
3DFACE
8
0
70
0
13
-0.450000
23
3.000000
33
-0.779423
12
-0.500000
22
2.800000
32
-0.866025
11
-0.000000
21
2.800000
31
-1.000000
10
-0.000000
20
3.000000
30
-0.900000
0
3DFACE
8
0
70
0
13
-0.000000
23
0.200000
33
1.000000
12
-0.500000
22
0.200000
32
0.866025
11
-0.500000
21
2.800000
31
0.866025
10
-0.000000
20
2.800000
30
1.000000
0
3DFACE
8
0
70
0
13
-0.000000
23
3.000000
33
0.900000
12
-0.000000
22
2.800000
32
1.000000
11
-0.500000
21
2.800000
31
0.866025
10
-0.450000
20
3.000000
30
0.779423
0
3DFACE
8
0
70
0
13
0.500000
23
0.200000
33
-0.866025
12
0.500000
22
2.800000
32
-0.866025
11
-0.000000
21
2.800000
31
-1.000000
10
-0.000000
20
0.200000
30
-1.000000
0
3DFACE
8
0
70
0
13
-0.000000
23
3.000000
33
-0.900000
12
-0.000000
22
2.800000
32
-1.000000
11
0.500000
21
2.800000
31
-0.866025
10
0.450000
20
3.000000
30
-0.779423
0
3DFACE
8
0
70
0
13
-0.000000
23
0.200000
33
1.000000
12
-0.000000
22
2.800000
32
1.000000
11
0.500000
21
2.800000
31
0.866025
10
0.500000
20
0.200000
30
0.866025
0
3DFACE
8
0
70
0
13
0.450000
23
3.000000
33
0.779423
12
0.500000
22
2.800000
32
0.866025
11
-0.000000
21
2.800000
31
1.000000
10
-0.000000
20
3.000000
30
0.900000
0
3DFACE
8
0
70
0
13
0.866025
23
0.200000
33
-0.500000
12
0.866025
22
2.800000
32
-0.500000
11
0.500000
21
2.800000
31
-0.866025
10
0.500000
20
0.200000
30
-0.866025
0
3DFACE
8
0
70
0
13
0.450000
23
3.000000
33
-0.779423
12
0.500000
22
2.800000
32
-0.866025
11
0.866025
21
2.800000
31
-0.500000
10
0.779423
20
3.000000
30
-0.450000
0
3DFACE
8
0
70
0
13
0.500000
23
0.200000
33
0.866025
12
0.500000
22
2.800000
32
0.866025
11
0.866025
21
2.800000
31
0.500000
10
0.866025
20
0.200000
30
0.500000
0
3DFACE
8
0
70
0
13
0.779423
23
3.000000
33
0.450000
12
0.866025
22
2.800000
32
0.500000
11
0.500000
21
2.800000
31
0.866025
10
0.450000
20
3.000000
30
0.779423
0
3DFACE
8
0
70
0
13
1.000000
23
0.200000
33
0.000000
12
1.000000
22
2.800000
32
0.000000
11
0.866025
21
2.800000
31
-0.500000
10
0.866025
20
0.200000
30
-0.500000
0
3DFACE
8
0
70
0
13
0.779423
23
3.000000
33
-0.450000
12
0.866025
22
2.800000
32
-0.500000
11
1.000000
21
2.800000
31
0.000000
10
0.900000
20
3.000000
30
0.000000
0
3DFACE
8
0
70
0
13
0.866025
23
0.200000
33
0.500000
12
0.866025
22
2.800000
32
0.500000
11
1.000000
21
2.800000
31
0.000000
10
1.000000
20
0.200000
30
0.000000
0
3DFACE
8
0
70
0
13
0.900000
23
3.000000
33
0.000000
12
1.000000
22
2.800000
32
0.000000
11
0.866025
21
2.800000
31
0.500000
10
0.779423
20
3.000000
30
0.450000
0
3DFACE
8
0
70
0
13
-0.866025
23
3.100000
33
-0.500000
12
-0.500000
22
3.100000
32
-0.866025
11
-0.000000
21
3.100000
31
-1.000000
10
0.500000
20
3.100000
30
-0.866025
0
3DFACE
8
0
70
0
13
-1.000000
23
3.100000
33
0.000000
12
-0.866025
22
3.100000
32
-0.500000
11
0.500000
21
3.100000
31
-0.866025
10
0.866025
20
3.100000
30
-0.500000
0
3DFACE
8
0
70
0
13
-1.000000
23
3.100000
33
0.000000
12
0.866025
22
3.100000
32
-0.500000
11
1.000000
21
3.100000
31
0.000000
10
-0.866025
20
3.100000
30
0.500000
0
3DFACE
8
0
70
0
13
-0.866025
23
3.100000
33
0.500000
12
1.000000
22
3.100000
32
0.000000
11
0.866025
21
3.100000
31
0.500000
10
-0.500000
20
3.100000
30
0.866025
0
3DFACE
8
0
70
0
13
-0.000000
23
3.100000
33
1.000000
12
-0.500000
22
3.100000
32
0.866025
11
0.866025
21
3.100000
31
0.500000
10
0.500000
20
3.100000
30
0.866025
0
3DFACE
8
0
70
0
13
-1.000000
23
3.100000
33
0.000000
12
-1.000000
22
2.900000
32
0.000000
11
-0.866025
21
2.900000
31
-0.500000
10
-0.866025
20
3.100000
30
-0.500000
0
3DFACE
8
0
70
0
13
-0.866025
23
3.100000
33
0.500000
12
-0.866025
22
2.900000
32
0.500000
11
-1.000000
21
2.900000
31
0.000000
10
-1.000000
20
3.100000
30
0.000000
0
3DFACE
8
0
70
0
13
-0.866025
23
3.100000
33
-0.500000
12
-0.866025
22
2.900000
32
-0.500000
11
-0.500000
21
2.900000
31
-0.866025
10
-0.500000
20
3.100000
30
-0.866025
0
3DFACE
8
0
70
0
13
-0.500000
23
3.100000
33
0.866025
12
-0.500000
22
2.900000
32
0.866025
11
-0.866025
21
2.900000
31
0.500000
10
-0.866025
20
3.100000
30
0.500000
0
3DFACE
8
0
70
0
13
-0.500000
23
3.100000
33
-0.866025
12
-0.500000
22
2.900000
32
-0.866025
11
-0.000000
21
2.900000
31
-1.000000
10
-0.000000
20
3.100000
30
-1.000000
0
3DFACE
8
0
70
0
13
-0.000000
23
3.100000
33
1.000000
12
-0.000000
22
2.900000
32
1.000000
11
-0.500000
21
2.900000
31
0.866025
10
-0.500000
20
3.100000
30
0.866025
0
3DFACE
8
0
70
0
13
-0.000000
23
3.100000
33
-1.000000
12
-0.000000
22
2.900000
32
-1.000000
11
0.500000
21
2.900000
31
-0.866025
10
0.500000
20
3.100000
30
-0.866025
0
3DFACE
8
0
70
0
13
0.500000
23
3.100000
33
0.866025
12
0.500000
22
2.900000
32
0.866025
11
-0.000000
21
2.900000
31
1.000000
10
-0.000000
20
3.100000
30
1.000000
0
3DFACE
8
0
70
0
13
0.500000
23
3.100000
33
-0.866025
12
0.500000
22
2.900000
32
-0.866025
11
0.866025
21
2.900000
31
-0.500000
10
0.866025
20
3.100000
30
-0.500000
0
3DFACE
8
0
70
0
13
0.866025
23
3.100000
33
0.500000
12
0.866025
22
2.900000
32
0.500000
11
0.500000
21
2.900000
31
0.866025
10
0.500000
20
3.100000
30
0.866025
0
3DFACE
8
0
70
0
13
0.866025
23
3.100000
33
-0.500000
12
0.866025
22
2.900000
32
-0.500000
11
1.000000
21
2.900000
31
0.000000
10
1.000000
20
3.100000
30
0.000000
0
3DFACE
8
0
70
0
13
1.000000
23
3.100000
33
0.000000
12
1.000000
22
2.900000
32
0.000000
11
0.866025
21
2.900000
31
0.500000
10
0.866025
20
3.100000
30
0.500000
0
ENDSEC
0
EOF
